<?xml version="1.0" encoding="UTF-8"?>
<svg id="Layer_2" data-name="Layer 2" xmlns="http://www.w3.org/2000/svg" viewBox="0 0 30.25 30.25">
  <g id="Layer_1-2" data-name="Layer 1">
    <path d="M16.03,30.25c-.25,0-.51-.03-.76-.08-.84-.17-1.61-.64-2.15-1.3-.55-.66-.85-1.5-.86-2.36v-8.52H3.75c-.87,0-1.71-.32-2.37-.86-.66-.54-1.12-1.31-1.3-2.15-.17-.84-.05-1.72.34-2.49.39-.77,1.04-1.38,1.82-1.73L25.07.23c.69-.25,1.44-.3,2.16-.14.72.16,1.38.52,1.9,1.04.52.52.88,1.18,1.04,1.9.16.72.11,1.46-.15,2.16l-10.54,22.84c-.34.77-.96,1.42-1.72,1.81-.54.27-1.13.42-1.73.42ZM13.38,15.75h1.12v10.75c0,.33.13.67.35.94.22.27.53.46.87.53.34.07.7.02,1.01-.14.31-.16.56-.42.7-.74L27.94,4.33c.07-.2.09-.51.03-.81-.07-.3-.21-.57-.43-.79-.22-.22-.49-.37-.79-.43-.29-.06-.58-.05-.86.05L3.17,12.82c-.33.15-.59.4-.75.71-.16.31-.21.67-.14,1.01.07.34.26.65.52.87.27.22.61.35.96.35h9.62Z" style="stroke-width: 0px;"/>
  </g>
</svg>