<svg xmlns="http://www.w3.org/2000/svg" viewBox="0 0 9 9">
	<path d="m5.98,4.54s-.02-.06,0-.08l2.83-2.83c.24-.24.24-.64,0-.88l-.56-.56c-.12-.12-.27-.18-.44-.18s-.32.06-.44.18l-2.83,2.83s-.03.02-.04.02-.03,0-.04-.02L1.62.18c-.12-.12-.27-.18-.44-.18s-.32.06-.44.18L.18.74C-.06.99-.06,1.38.18,1.62l2.83,2.83s.02.06,0,.08L.18,7.38c-.24.24-.24.64,0,.88l.56.56c.12.12.27.18.44.18s.32-.06.44-.18l2.83-2.83s.03-.02.04-.02.03,0,.04.02l2.83,2.83c.12.12.27.18.44.18s.32-.06.44-.18l.56-.56c.24-.24.24-.64,0-.88l-2.83-2.83Z" />
</svg>
