<svg viewBox="0 0 17 17" xmlns="http://www.w3.org/2000/svg">
	<path d="M7.93658 12.7822C8.01057 12.8562 8.09842 12.9149 8.19511 12.955C8.29179 12.995 8.39542 13.0156 8.50007 13.0156C8.60472 13.0156 8.70834 12.995 8.80503 12.955C8.90171 12.9149 8.98956 12.8562 9.06356 12.7822L12.0687 9.77703C12.2182 9.62758 12.3021 9.4249 12.3021 9.21355C12.3021 9.00221 12.2182 8.79952 12.0687 8.65008C11.9193 8.50064 11.7166 8.41668 11.5053 8.41668C11.2939 8.41668 11.0912 8.50064 10.9418 8.65008L9.29694 10.2949V1.59375C9.29694 1.38241 9.21299 1.17972 9.06354 1.03027C8.9141 0.880831 8.71141 0.796875 8.50007 0.796875C8.28872 0.796875 8.08603 0.880831 7.93659 1.03027C7.78715 1.17972 7.70319 1.38241 7.70319 1.59375V10.2949L6.05834 8.65008C5.9089 8.50064 5.70621 8.41668 5.49487 8.41668C5.28353 8.41668 5.08084 8.50064 4.9314 8.65008C4.78195 8.79952 4.698 9.00221 4.698 9.21355C4.698 9.4249 4.78195 9.62758 4.9314 9.77703L7.93658 12.7822Z" />
	<path d="M15.4062 7.70312C15.1949 7.70313 14.9922 7.78708 14.8428 7.93652C14.6933 8.08597 14.6094 8.28866 14.6094 8.5V14.6094H2.39062V8.5C2.39062 8.28866 2.30667 8.08597 2.15723 7.93652C2.00778 7.78708 1.80509 7.70313 1.59375 7.70312C1.38241 7.70313 1.17972 7.78708 1.03027 7.93652C0.880831 8.08597 0.796875 8.28866 0.796875 8.5V14.875C0.796875 15.2272 0.936802 15.5651 1.18587 15.8141C1.43495 16.0632 1.77276 16.2031 2.125 16.2031H14.875C15.2272 16.2031 15.5651 16.0632 15.8141 15.8141C16.0632 15.5651 16.2031 15.2272 16.2031 14.875V8.5C16.2031 8.28866 16.1192 8.08597 15.9697 7.93652C15.8203 7.78708 15.6176 7.70313 15.4062 7.70312Z" />
</svg>
