<svg width="20" height="20" viewBox="0 0 20 20" fill="none" xmlns="http://www.w3.org/2000/svg">
<path d="M10.2312 19.473C8.99015 19.473 7.78396 19.2276 6.64606 18.7439C5.54799 18.2772 4.56052 17.6095 3.71131 16.7601C2.86211 15.9106 2.19514 14.9226 1.72864 13.8238C1.24528 12.685 1 11.478 1 10.2365C1 8.995 1.24528 7.78779 1.72864 6.64921C2.19514 5.55047 2.86239 4.5624 3.71131 3.71296C4.56024 2.86352 5.54771 2.19586 6.64606 1.72908C7.78423 1.24515 8.99043 1 10.2312 1C11.472 1 12.6784 1.24543 13.8163 1.72908C14.9144 2.19586 15.9019 2.86352 16.7508 3.71296C17.5997 4.5624 18.267 5.55047 18.7335 6.64921C19.2168 7.78807 19.4621 8.995 19.4621 10.2365C19.4621 11.478 19.2168 12.6852 18.7335 13.8238C18.267 14.9226 17.5997 15.9106 16.7508 16.7601C15.9019 17.6095 14.9144 18.2772 13.8163 18.7439C12.6781 19.2279 11.472 19.473 10.2312 19.473ZM10.2312 1.6909C7.95982 1.6909 5.81815 2.5824 4.20021 4.20132C2.58227 5.82024 1.69131 7.96349 1.69131 10.236C1.69131 12.5084 2.58227 14.6517 4.20021 16.2706C5.81815 17.8895 7.9601 18.781 10.2312 18.781C12.5023 18.781 14.6442 17.8895 16.2622 16.2706C17.8801 14.6517 18.7711 12.5084 18.7711 10.236C18.7711 7.96349 17.8801 5.82024 16.2622 4.20132C14.6442 2.5824 12.5023 1.6909 10.2312 1.6909Z" fill="black" stroke="black" stroke-width="0.5"/>
<path d="M8.0194 10.5822C7.95276 10.5822 7.88612 10.5631 7.82777 10.5241L5.31583 8.84846C4.69752 8.43592 4.48626 7.61525 4.83496 6.97996C4.95829 6.75529 4.97045 6.49243 4.86842 6.25891C4.76638 6.0251 4.5659 5.85549 4.31869 5.79351L2.8968 5.44709C2.71125 5.40199 2.5976 5.21467 2.64268 5.02929C2.68775 4.84363 2.87468 4.72991 3.06023 4.77501L4.48432 5.12198C4.94335 5.23681 5.31362 5.55002 5.50193 5.98222C5.69052 6.41385 5.66812 6.89917 5.44082 7.3131C5.26329 7.63655 5.37694 8.05823 5.69909 8.27322L7.22329 9.29006C7.00788 8.36093 7.46663 7.37231 8.39796 6.89447C8.62969 6.77549 8.77957 6.49603 8.77957 6.18254V5.80956C8.77957 5.00854 9.43078 4.35693 10.2313 4.35693H10.8986C11.1469 4.35693 11.3723 4.241 11.5169 4.03901C11.6615 3.83703 11.6985 3.58607 11.6184 3.35088L11.0095 1.52361C10.9492 1.34238 11.0468 1.14648 11.2279 1.08616C11.409 1.02584 11.6048 1.12379 11.6651 1.30475L12.2734 3.13008C12.4255 3.57721 12.3547 4.05589 12.0788 4.44187C11.8028 4.82758 11.3725 5.04894 10.8983 5.04894H10.231C9.81183 5.04894 9.4706 5.39037 9.4706 5.80984V6.18282C9.4706 6.75308 9.17334 7.27409 8.7132 7.51038C7.96769 7.89305 7.65771 8.74055 8.00696 9.43975L8.328 10.0822C8.39824 10.2225 8.36506 10.3924 8.24753 10.4962C8.18255 10.5534 8.10098 10.5828 8.01885 10.5828L8.0194 10.5822Z" fill="black" stroke="black" stroke-width="0.5"/>
<path d="M10.2334 19.4723C10.1031 19.4723 9.9831 19.399 9.9242 19.2811L9.52518 18.4829C9.03878 17.5092 8.78161 16.4066 8.78161 15.294C8.78161 14.9791 8.65911 14.6833 8.43678 14.4609L7.777 13.8004C7.64205 13.6654 7.64205 13.4462 7.777 13.3112L8.10661 12.9814C8.46554 12.6223 8.55431 12.0755 8.32728 11.6209L7.71229 10.3902C7.65865 10.2831 7.66445 10.1555 7.7275 10.0537C7.79055 9.95163 7.90171 9.88965 8.02144 9.88965H8.99702C9.89157 9.88965 10.6957 10.3869 11.0958 11.1876C11.3782 11.7523 11.9453 12.1032 12.5763 12.1032H13.5519C13.7427 12.1032 13.8976 12.2581 13.8976 12.449V13.5558C13.8976 14.2456 13.6274 14.8925 13.1369 15.377C11.8433 16.655 11.0007 17.9173 10.5616 19.2357C10.5173 19.3685 10.3976 19.4615 10.2582 19.4715C10.2499 19.472 10.2419 19.4723 10.2336 19.4723H10.2334ZM8.51006 13.5558L8.92568 13.9717C9.2788 14.325 9.47319 14.7946 9.47319 15.294C9.47319 16.2998 9.7052 17.2956 10.1438 18.1735L10.1944 18.2748C10.7093 17.119 11.5186 16.0037 12.651 14.885C13.0091 14.5314 13.2063 14.0594 13.2063 13.5558V12.7949H12.5763C11.6818 12.7949 10.8777 12.2977 10.4775 11.4969C10.1952 10.9322 9.62805 10.5814 8.99702 10.5814H8.58085L8.94586 11.3116C9.30617 12.0326 9.16542 12.9003 8.59578 13.4706L8.51062 13.5558H8.51006Z" fill="black" stroke="black" stroke-width="0.5"/>
<path d="M18.8409 12.795H17.5542C17.0473 12.795 16.5858 12.5374 16.3192 12.106C16.0527 11.6746 16.0289 11.1461 16.2556 10.6926L16.4445 10.3144C16.497 10.2093 16.5247 10.0917 16.5247 9.97408V9.12851C16.5247 8.70905 16.1835 8.36761 15.7643 8.36761C14.9637 8.36761 14.3125 7.716 14.3125 6.91498V6.26669C14.3125 5.87877 14.4635 5.51382 14.7378 5.23962L15.3354 4.64169C15.4183 4.55868 15.4819 4.45575 15.519 4.34424L15.7947 3.51694C15.8549 3.3357 16.0507 3.23775 16.2319 3.29807C16.413 3.35839 16.5109 3.55429 16.4506 3.73552L16.1749 4.56283C16.1038 4.7756 15.9827 4.97206 15.8243 5.1306L15.2267 5.72853C15.0832 5.87213 15.0041 6.06333 15.0041 6.26669V6.91498C15.0041 7.33445 15.3453 7.67588 15.7645 7.67588C16.5651 7.67588 17.2163 8.32749 17.2163 9.12851V9.97408C17.2163 10.1982 17.1632 10.4229 17.0631 10.6238L16.8742 11.002C16.7556 11.2397 16.768 11.5164 16.9074 11.7424C17.047 11.9685 17.2887 12.1032 17.5542 12.1032H18.8409C19.0317 12.1032 19.1865 12.2582 19.1865 12.4491C19.1865 12.64 19.0317 12.795 18.8409 12.795Z" fill="black" stroke="black" stroke-width="0.5"/>
</svg>
