<?xml version="1.0" encoding="UTF-8"?><svg id="b" xmlns="http://www.w3.org/2000/svg" viewBox="0 0 17.93 12.68"><defs><style>.d{isolation:isolate;}</style></defs><g id="c"><path class="d" d="m1.95,12.68H.24c-.21,0-.28-.14-.21-.41L2.84.42c.03-.13.1-.24.2-.31.1-.08.22-.11.33-.1h2.37c.12-.02.24.01.34.09.1.08.17.19.19.32l2.81,11.85c.07.28,0,.41-.21.41h-1.71s-.1,0-.14-.01c-.05-.02-.09-.04-.13-.08-.06-.1-.1-.21-.11-.33l-.5-2.17h-3.47l-.5,2.17c0,.12-.05.23-.12.33-.07.07-.16.1-.26.09ZM4.53,2.39l-1.28,5.7h2.64l-1.28-5.7h-.07Zm7.46,2.37h2.46v-2.52h1.01v2.52h2.46v1.01h-2.46v2.52h-1.01v-2.52h-2.46v-1.01Z"/></g></svg>