<?xml version="1.0" encoding="UTF-8"?><svg id="b" xmlns="http://www.w3.org/2000/svg" viewBox="0 0 16.21 11"><g id="c"><path d="m12.83,6.45h3.39v1.04h-3.39v-1.04ZM1.71,11H.21c-.19,0-.25-.12-.19-.36L2.49.36c.03-.11.09-.21.18-.27.09-.07.19-.1.29-.09h2.08c.11-.02.21.01.3.08.09.07.15.17.17.28l2.47,10.28c.06.24,0,.36-.19.36h-1.5s-.08,0-.12-.01c-.04-.01-.08-.04-.11-.07-.05-.08-.09-.18-.1-.28l-.43-1.88h-3.04l-.44,1.88c0,.1-.04.2-.1.28-.03.03-.07.05-.11.06s-.08.02-.12.01ZM3.98,2.07l-1.12,4.94h2.31l-1.12-4.94h-.07Z"/></g></svg>