<svg width="20" height="19" viewBox="0 0 20 19" fill="none" xmlns="http://www.w3.org/2000/svg">
<path d="M9.78711 4.6266C8.82413 4.6266 7.88277 4.9123 7.08208 5.44758C6.28139 5.98286 5.65732 6.74368 5.2888 7.63382C4.92029 8.52396 4.82387 9.50344 5.01173 10.4484C5.1996 11.3934 5.66332 12.2614 6.34426 12.9427C7.02519 13.624 7.89275 14.0879 8.83723 14.2759C9.78171 14.4638 10.7607 14.3674 11.6504 13.9987C12.54 13.63 13.3005 13.0056 13.8355 12.2045C14.3705 11.4034 14.656 10.4615 14.656 9.49804C14.6571 8.85802 14.5318 8.22409 14.2875 7.6326C14.0432 7.0411 13.6846 6.50367 13.2323 6.05111C12.7799 5.59854 12.2428 5.23976 11.6516 4.99531C11.0604 4.75086 10.4268 4.62556 9.78711 4.6266ZM9.78711 12.6656C9.16095 12.6656 8.54885 12.4798 8.02821 12.1318C7.50758 11.7837 7.10179 11.289 6.86217 10.7102C6.62255 10.1314 6.55985 9.49452 6.68201 8.88008C6.80417 8.26563 7.10569 7.70122 7.54846 7.25823C7.99122 6.81524 8.55534 6.51356 9.16947 6.39134C9.7836 6.26912 10.4202 6.33185 10.9987 6.57159C11.5772 6.81134 12.0716 7.21733 12.4195 7.73823C12.7674 8.25914 12.953 8.87155 12.953 9.49804C12.9515 10.3377 12.6174 11.1424 12.024 11.7361C11.4307 12.3298 10.6263 12.664 9.78711 12.6656ZM15.9916 4.43052C15.9916 4.65525 15.925 4.87493 15.8002 5.06179C15.6754 5.24864 15.498 5.39428 15.2905 5.48028C15.083 5.56628 14.8547 5.58878 14.6344 5.54494C14.4141 5.50109 14.2117 5.39288 14.0529 5.23397C13.8941 5.07506 13.7859 4.8726 13.7421 4.65219C13.6983 4.43178 13.7208 4.20332 13.8067 3.9957C13.8927 3.78808 14.0382 3.61062 14.225 3.48577C14.4118 3.36092 14.6313 3.29428 14.8559 3.29428C15.0049 3.29389 15.1525 3.32292 15.2903 3.3797C15.4281 3.43648 15.5533 3.5199 15.6588 3.62517C15.7643 3.73045 15.848 3.85551 15.9051 3.9932C15.9622 4.1309 15.9916 4.27851 15.9916 4.42758V4.43052ZM19.2163 5.58343C19.2475 4.10618 18.6963 2.67602 17.6819 1.60216C16.6064 0.590671 15.1784 0.0397346 13.7026 0.06691C12.1349 -0.0223033 7.43152 -0.0223033 5.86374 0.06691C4.38976 0.0377145 2.96277 0.586217 1.88747 1.5953C0.875142 2.6704 0.324569 4.09981 0.353985 5.57657C0.264818 7.14516 0.264818 11.8509 0.353985 13.4195C0.322827 14.8968 0.874042 16.3269 1.88845 17.4008C2.96477 18.4106 4.39242 18.9603 5.86766 18.9331C7.43544 19.0223 12.1388 19.0223 13.7066 18.9331C15.183 18.9643 16.6125 18.4128 17.6858 17.3978C18.6967 16.3218 19.2474 14.8931 19.2202 13.4166C19.3094 11.848 19.3094 7.15006 19.2202 5.58147L19.2163 5.58343ZM17.1909 15.1018C17.0291 15.5105 16.785 15.8815 16.4739 16.1918C16.1627 16.5021 15.7911 16.7451 15.3821 16.9057C14.1318 17.4018 11.1687 17.2871 9.78417 17.2871C8.39963 17.2871 5.43163 17.3969 4.18622 16.9057C3.77779 16.7444 3.40682 16.5009 3.09635 16.1903C2.78587 15.8797 2.54249 15.5085 2.38132 15.0999C1.88551 13.8489 2.00015 10.8843 2.00015 9.49902C2.00015 8.11376 1.89041 5.14423 2.38132 3.89818C2.54271 3.48908 2.78648 3.11756 3.09749 2.80673C3.4085 2.49589 3.78009 2.2524 4.18916 2.09137C5.43947 1.5953 8.40257 1.71 9.78711 1.71C11.1717 1.71 14.1397 1.6002 15.3851 2.09137C15.7935 2.25262 16.1645 2.49612 16.4749 2.80676C16.7854 3.1174 17.0288 3.48856 17.19 3.8972C17.6858 5.14815 17.5711 8.11278 17.5711 9.49804C17.5711 10.8833 17.6868 13.8528 17.1909 15.0999V15.1018Z" fill="black"/>
</svg>
