<svg width="18" height="17" viewBox="0 0 18 17" fill="none" xmlns="http://www.w3.org/2000/svg">
<path d="M4.1066 16.9991H0.586995V5.65042H4.1066V16.9991ZM2.345 4.10184C1.93991 4.1038 1.54334 3.98541 1.20545 3.76165C0.867554 3.53788 0.603516 3.21879 0.446728 2.84473C0.28994 2.47068 0.247445 2.05846 0.324618 1.66022C0.401791 1.26197 0.595165 0.895594 0.880283 0.607419C1.1654 0.319243 1.52945 0.122216 1.9264 0.0412569C2.32334 -0.0397019 2.73534 -0.000955464 3.1103 0.152596C3.48525 0.306147 3.80631 0.567604 4.03287 0.9039C4.25942 1.2402 4.3813 1.63622 4.38309 2.04189C4.38358 2.5851 4.16962 3.10648 3.78783 3.49236C3.40605 3.87824 2.88741 4.09732 2.345 4.10184ZM17.2781 16.9991H13.7657V11.4749C13.7657 10.1581 13.7396 8.46977 11.9357 8.46977C10.1056 8.46977 9.82551 9.9002 9.82551 11.3802V17H6.31311V5.65042H9.68862V7.19809H9.73815C10.0759 6.61912 10.5642 6.14284 11.1511 5.82008C11.738 5.49731 12.4013 5.34017 13.0704 5.36541C16.6324 5.36541 17.2871 7.71037 17.2871 10.7651V16.9991H17.2781Z" fill="black"/>
</svg>
