<svg width="20" height="20" viewBox="0 0 20 20" fill="none" xmlns="http://www.w3.org/2000/svg">
<path d="M10.738 13.5635H10.682C10.5152 13.5823 10.3592 13.6554 10.238 13.7715L7.24802 16.7615C6.61341 17.3817 5.75986 17.7267 4.87253 17.7216C3.9852 17.7165 3.13566 17.3617 2.50822 16.7343C1.88077 16.1068 1.52602 15.2573 1.52093 14.37C1.51584 13.4826 1.86081 12.6291 2.48102 11.9945L5.65602 8.82847C5.81696 8.66758 5.99388 8.5235 6.18402 8.39847C6.39852 8.25731 6.62832 8.1409 6.86902 8.05147C7.09334 7.96906 7.32609 7.91171 7.56302 7.88047C7.71938 7.85846 7.87712 7.84777 8.03502 7.84847C8.10002 7.84847 8.16502 7.84847 8.24802 7.85747C9.06422 7.90719 9.8343 8.25277 10.414 8.82947C10.7701 9.18535 11.0406 9.61759 11.205 10.0935C11.2651 10.2713 11.3915 10.4191 11.5578 10.5061C11.7242 10.5931 11.9177 10.6126 12.098 10.5605C12.098 10.5605 12.107 10.5605 12.112 10.5605C12.117 10.5605 12.121 10.5605 12.121 10.5605C12.3012 10.5055 12.4529 10.3823 12.5437 10.2172C12.6344 10.0521 12.6572 9.85809 12.607 9.67647C12.4045 8.9525 12.0111 8.29627 11.468 7.77647C10.7435 7.05617 9.81086 6.58182 8.80202 6.42047C8.71402 6.40647 8.62602 6.39247 8.53802 6.38347C8.36731 6.3649 8.19573 6.35556 8.02402 6.35547C7.90402 6.35547 7.78302 6.35547 7.66802 6.36947C7.41529 6.38772 7.16446 6.42651 6.91802 6.48547C6.86702 6.49447 6.81802 6.50847 6.77002 6.52247C6.4595 6.60483 6.15799 6.71806 5.87002 6.86047C5.39436 7.0939 4.96105 7.40519 4.58802 7.78147L1.41202 10.9445C0.504032 11.8619 -0.00365087 13.1017 1.97668e-05 14.3925C0.00217995 15.3531 0.288581 16.2916 0.823145 17.0898C1.35771 17.888 2.11653 18.5101 3.00401 18.8778C3.8915 19.2456 4.86796 19.3424 5.81039 19.1562C6.75282 18.97 7.61907 18.5091 8.30002 17.8315L11.325 14.8085C11.4305 14.7016 11.5006 14.5649 11.5259 14.4169C11.5512 14.2689 11.5304 14.1168 11.4663 13.981C11.4023 13.8452 11.2981 13.7323 11.1679 13.6576C11.0376 13.583 10.8876 13.5501 10.738 13.5635Z" fill="black"/>
<path d="M17.8344 1.42098C16.9202 0.510923 15.6828 0 14.3929 0C13.1029 0 11.8655 0.510923 10.9514 1.42098L8.00336 4.36498C7.90278 4.46546 7.83311 4.59265 7.80257 4.7315C7.77203 4.87035 7.78191 5.01504 7.83105 5.14844C7.88018 5.28185 7.9665 5.39838 8.0798 5.48426C8.19311 5.57013 8.32864 5.62174 8.47036 5.63298C8.57791 5.64175 8.68609 5.62726 8.78755 5.59051C8.88901 5.55376 8.98137 5.4956 9.05836 5.41998L12.0114 2.47598C12.6475 1.86327 13.4988 1.52472 14.382 1.53316C15.2652 1.5416 16.1099 1.89635 16.7342 2.5211C17.3586 3.14586 17.7128 3.9907 17.7207 4.87393C17.7286 5.75715 17.3895 6.60819 16.7764 7.24398L13.6034 10.421C13.4424 10.5819 13.2655 10.7259 13.0754 10.851C12.8609 10.9921 12.6311 11.1086 12.3904 11.198C12.166 11.2804 11.9333 11.3377 11.6964 11.369C11.54 11.391 11.3823 11.4017 11.2244 11.401C11.1594 11.401 11.0904 11.401 11.0114 11.392C10.3677 11.3554 9.74855 11.1325 9.22925 10.7504C8.70995 10.3683 8.31288 9.84358 8.08636 9.23998C8.02181 9.06796 7.8955 8.92615 7.73206 8.84221C7.56862 8.75827 7.37978 8.73822 7.20236 8.78598C7.10436 8.81175 7.01261 8.85715 6.93269 8.91945C6.85277 8.98174 6.78634 9.05963 6.73743 9.14837C6.68852 9.23712 6.65815 9.33488 6.64817 9.43572C6.63819 9.53655 6.6488 9.63837 6.67936 9.73498C6.89766 10.3953 7.27549 10.9916 7.77936 11.471L7.78836 11.48C8.57725 12.2653 9.61125 12.7569 10.7184 12.873C10.8891 12.8915 11.0606 12.9009 11.2324 12.901C11.353 12.901 11.4734 12.8963 11.5934 12.887C11.8947 12.8632 12.1935 12.8137 12.4864 12.739C12.7969 12.6566 13.0984 12.5434 13.3864 12.401C13.862 12.1676 14.2953 11.8563 14.6684 11.48L17.8434 8.30498C18.754 7.39036 19.2645 6.15178 19.2628 4.86112C19.2611 3.57047 18.7474 2.33322 17.8344 1.42098Z" fill="black"/>
</svg>
