<svg width="31" height="31" viewBox="0 0 31 31" fill="none" xmlns="http://www.w3.org/2000/svg">
<path d="M15.5023 0C11.3908 6.12565e-08 7.44776 1.63303 4.54052 4.53985C1.63327 7.44666 0 11.3891 0 15.5C0 19.6109 1.63327 23.5533 4.54052 26.4602C7.44776 29.367 11.3908 31 15.5023 31C15.8026 30.9899 16.0872 30.8635 16.296 30.6475C16.5049 30.4316 16.6216 30.1429 16.6216 29.8425C16.6216 29.5421 16.5049 29.2534 16.296 29.0374C16.0872 28.8215 15.8026 28.6951 15.5023 28.685C12.8944 28.6847 10.3452 27.9113 8.1769 26.4625C6.00864 25.0136 4.31872 22.9545 3.32085 20.5455C2.32298 18.1364 2.06196 15.4856 2.57079 12.9282C3.07963 10.3708 4.33547 8.02173 6.17952 6.17795C8.02358 4.33417 10.373 3.07851 12.9308 2.56975C15.4885 2.06099 18.1398 2.32197 20.5492 3.3197C22.9586 4.31743 25.018 6.00709 26.467 8.17503C27.9161 10.343 28.6896 12.8918 28.6899 15.4993L28.6899 19.0843C28.6899 19.7283 28.434 20.3459 27.9786 20.8012C27.5232 21.2566 26.9055 21.5124 26.2614 21.5124C25.6173 21.5124 24.9997 21.2566 24.5442 20.8012C24.0888 20.3459 23.833 19.7283 23.833 19.0843L23.833 15.4993C23.8373 13.5389 23.1508 11.6395 21.8941 10.1347C20.6373 8.62986 18.8906 7.61571 16.9605 7.27025C15.0304 6.92479 13.0403 7.27011 11.3395 8.24558C9.6387 9.22105 8.33588 10.7643 7.65972 12.6046C6.98357 14.4448 6.9773 16.4643 7.64201 18.3087C8.30672 20.1531 9.59993 21.7045 11.2947 22.6905C12.9894 23.6765 14.9773 24.0341 16.9095 23.7007C18.8417 23.3672 20.5947 22.3639 21.8607 20.8669C22.2746 21.8862 23.03 22.73 23.9975 23.2537C24.965 23.7775 26.0846 23.9487 27.1645 23.7381C28.2444 23.5275 29.2174 22.9481 29.9171 22.0991C30.6168 21.2501 30.9996 20.1844 31 19.0843L31 15.4993C30.9965 11.3904 29.3627 7.45071 26.4572 4.54489C23.5517 1.63907 19.6118 0.00452532 15.5023 0ZM15.5023 21.5137C14.3129 21.5137 13.1501 21.1611 12.1611 20.5003C11.1721 19.8396 10.4013 18.9005 9.94613 17.8018C9.49095 16.703 9.37185 15.494 9.6039 14.3276C9.83595 13.1611 10.4087 12.0897 11.2498 11.2488C12.0909 10.4078 13.1624 9.83515 14.329 9.60314C15.4956 9.37112 16.7048 9.4902 17.8037 9.94531C18.9026 10.4004 19.8419 11.1711 20.5027 12.16C21.1635 13.1488 21.5163 14.3114 21.5163 15.5007C21.5163 17.0954 20.8826 18.6249 19.7548 19.7525C18.627 20.8802 17.0973 21.5137 15.5023 21.5137Z" fill="black"/>
</svg>
