<svg width="32" height="32" viewBox="0 0 32 32" fill="none" xmlns="http://www.w3.org/2000/svg">
<path d="M26.3319 2.16558L3.57292 12.6702C3.02013 12.9166 2.56821 13.3447 2.29213 13.8833C2.01605 14.422 1.93241 15.0388 2.05507 15.6315C2.17773 16.2242 2.49933 16.7572 2.96652 17.142C3.4337 17.5268 4.0184 17.7403 4.62361 17.7471H14.2524V27.3763C14.2592 27.9815 14.4727 28.5662 14.8575 29.0334C15.2423 29.5007 15.7752 29.8223 16.3679 29.9449C16.9606 30.0676 17.5774 29.984 18.116 29.7079C18.6547 29.4318 19.0827 28.9798 19.3292 28.427L29.8333 5.67121C30.0124 5.18231 30.048 4.65242 29.936 4.14394C29.824 3.63546 29.569 3.16959 29.2011 2.80121C28.8331 2.43283 28.3676 2.17727 27.8593 2.06466C27.3509 1.95204 26.821 1.98706 26.3319 2.16558Z" fill="black" stroke="black" stroke-width="2.25"/>
</svg>
