<svg width="13" height="18" viewBox="0 0 13 18" fill="none" xmlns="http://www.w3.org/2000/svg">
<path d="M6.28537 0C2.8196 0 0 2.82781 0 6.30364C0 10.6172 5.62479 16.9499 5.86427 17.2174C6.08921 17.4686 6.48194 17.4682 6.70647 17.2174C6.94595 16.9499 12.5707 10.6172 12.5707 6.30364C12.5707 2.82781 9.75111 0 6.28537 0ZM6.28537 9.47517C4.54165 9.47517 3.12307 8.05243 3.12307 6.30364C3.12307 4.55484 4.54169 3.13213 6.28537 3.13213C8.02905 3.13213 9.44763 4.55488 9.44763 6.30367C9.44763 8.05246 8.02905 9.47517 6.28537 9.47517Z" fill="black"/>
</svg>
