<svg width="28" height="28" viewBox="0 0 28 28" fill="none" xmlns="http://www.w3.org/2000/svg">
<path d="M20.2637 15.681C19.6247 15.6791 18.9974 15.8514 18.4491 16.1795C17.9008 16.5076 17.4524 16.9789 17.152 17.5428C17.0656 17.6691 17.0048 17.8111 16.9732 17.9608C16.9417 18.1105 16.9399 18.2649 16.968 18.4153C17.0248 18.7191 17.2 18.9878 17.4549 19.1624C17.7099 19.337 18.0237 19.4032 18.3275 19.3464C18.4779 19.3183 18.6213 19.2608 18.7495 19.1773C18.8777 19.0937 18.9881 18.9858 19.0746 18.8595C19.5869 18.1103 19.8199 17.9931 20.1281 18.0076C22.1912 18.8998 24.0274 20.2444 25.5007 21.9419C25.6004 22.2169 25.5967 22.5188 25.4902 22.7912C25.3489 23.3243 25.0993 23.8226 24.7569 24.255C24.4146 24.6875 23.9869 25.0448 23.5005 25.3048C23.0215 25.4952 22.5084 25.5846 21.9933 25.5671C21.4782 25.5497 20.9722 25.4258 20.5073 25.2034C16.4799 23.595 12.8102 21.2064 9.70933 18.1749C6.68701 15.0779 4.30548 11.4151 2.70118 7.39638C2.47887 6.93145 2.35511 6.42558 2.33766 5.91055C2.32021 5.39551 2.40945 4.88243 2.59978 4.40353C2.8597 3.91746 3.21691 3.4901 3.64916 3.14804C4.08141 2.80599 4.57946 2.55657 5.11229 2.41531C5.38398 2.30806 5.68543 2.30338 5.96032 2.40215C7.6541 3.87098 8.99762 5.70026 9.89237 7.75583C9.90817 8.08369 9.79097 8.31411 9.04302 8.82631C8.91678 8.91276 8.80881 9.02323 8.72527 9.15141C8.64173 9.27959 8.58425 9.42297 8.55613 9.57336C8.52801 9.72374 8.52978 9.8782 8.56136 10.0279C8.59293 10.1776 8.65368 10.3196 8.74015 10.4458C8.82661 10.5721 8.93709 10.68 9.06528 10.7636C9.19347 10.8471 9.33687 10.9046 9.48727 10.9327C9.63767 10.9608 9.79214 10.959 9.94186 10.9275C10.0916 10.8959 10.2336 10.8351 10.3598 10.7487C10.9232 10.448 11.3939 9.99939 11.7213 9.45117C12.0486 8.90295 12.2203 8.27585 12.2179 7.63733C11.2728 4.63036 9.35747 2.02152 6.77149 0.219064C5.99655 -0.0679584 5.1453 -0.0730858 4.36696 0.20458C3.53035 0.443822 2.75274 0.854689 2.0837 1.411C1.41465 1.96732 0.868825 2.65688 0.481004 3.43575C0.153705 4.20256 -0.00996136 5.02923 0.000468948 5.86289C0.0108993 6.69655 0.195197 7.51886 0.541579 8.27725C2.26526 12.5831 4.82279 16.5061 8.06725 19.8207L8.09095 19.8444C11.4048 23.0833 15.3252 25.6364 19.6277 27.3575C20.4505 27.7046 21.3328 27.8888 22.2258 27.9C22.9983 27.9024 23.7621 27.7371 24.4644 27.4154C25.2435 27.0275 25.9332 26.4815 26.4896 25.8123C27.0459 25.1431 27.4568 24.3653 27.6959 23.5285C27.9725 22.752 27.9678 21.903 27.6827 21.1295C25.8788 18.5423 23.267 16.6269 20.2571 15.6837L20.2637 15.681Z" fill="black"/>
</svg>
