<svg viewBox="0 0 16 16" fill="none" xmlns="http://www.w3.org/2000/svg">
	<path d="M0 8.0006C0 11.2767 1.96999 14.0911 4.78897 15.3285C4.76647 14.7698 4.78497 14.0991 4.92823 13.4913C5.08205 12.8418 5.95766 9.13179 5.95766 9.13179C5.95766 9.13179 5.70209 8.62095 5.70209 7.86596C5.70209 6.68033 6.38925 5.79484 7.24505 5.79484C7.97278 5.79484 8.32437 6.34144 8.32437 6.99598C8.32437 7.72752 7.85778 8.82177 7.61782 9.83527C7.41738 10.6839 8.04335 11.3762 8.88059 11.3762C10.3964 11.3762 11.4174 9.42924 11.4174 7.12248C11.4174 5.369 10.2364 4.05655 8.08829 4.05655C5.6614 4.05655 4.14949 5.86641 4.14949 7.88803C4.14949 8.58507 4.35501 9.0766 4.6769 9.45725C4.82491 9.63207 4.84547 9.70238 4.79191 9.90315C4.75353 10.0503 4.6654 10.4047 4.6289 10.5452C4.57564 10.7478 4.41145 10.8203 4.22831 10.7454C3.1105 10.2891 2.5899 9.06497 2.5899 7.68889C2.5899 5.41619 4.50664 2.69103 8.30787 2.69103C11.3624 2.69103 13.3729 4.90141 13.3729 7.27412C13.3729 10.4126 11.628 12.7573 9.05597 12.7573C8.19223 12.7573 7.37975 12.2904 7.10142 11.7601C7.10142 11.7601 6.63695 13.6034 6.53857 13.9594C6.36894 14.5762 6.03692 15.1928 5.73334 15.6733C6.45288 15.8857 7.21299 16.0014 8.00078 16.0014C12.4188 16.0014 16.001 12.4194 16.001 8.0006C16.001 3.58202 12.4188 0 8.00078 0C3.58234 0 0 3.58202 0 8.0006Z" />
</svg>
