<svg width="27" height="23" viewBox="0 0 27 23" fill="none" xmlns="http://www.w3.org/2000/svg">
<path d="M0 23V9.91519C0 6.96231 1.02304 4.67314 3.06912 3.0477C5.11521 1.39517 8.03226 0.379268 11.8203 0V6.37986C9.60829 6.67786 7.90783 7.23321 6.71889 8.04593C5.52995 8.85865 4.74194 9.99646 4.35484 11.4594H11.8203V23H0ZM15.1797 23V9.91519C15.1797 6.96231 16.2028 4.67314 18.2488 3.0477C20.2949 1.39517 23.212 0.379268 27 0V6.37986C24.788 6.67786 23.0876 7.23321 21.8986 8.04593C20.7097 8.85865 19.9217 9.99646 19.5346 11.4594H27V23H15.1797Z" fill="black"/>
</svg>
