<svg xmlns="http://www.w3.org/2000/svg" viewBox="0 0 51.56 51.56">
    <path d="M50.13,0h-11.46c-.79,0-1.43,.64-1.43,1.43s.64,1.43,1.43,1.43h8l-11.88,11.88c-.57,.55-.58,1.46-.03,2.02,.55,.57,1.46,.58,2.02,.03l.03-.03,11.88-11.88v8c0,.79,.64,1.43,1.43,1.43s1.43-.64,1.43-1.43V1.43C51.56,.64,50.92,0,50.13,0Z"/>
    <path d="M14.74,34.79L2.86,46.67v-8c0-.79-.64-1.43-1.43-1.43S0,37.88,0,38.67h0v11.46c0,.79,.64,1.43,1.43,1.43H12.89c.79,0,1.43-.64,1.43-1.43s-.64-1.43-1.43-1.43H4.89l11.88-11.88c.55-.57,.54-1.47-.03-2.02-.56-.54-1.44-.54-2,0h0Z"/>
    <path d="M50.13,37.24c-.79,0-1.43,.64-1.43,1.43h0v8l-11.88-11.88c-.57-.55-1.47-.54-2.02,.03-.54,.56-.54,1.44,0,2l11.88,11.88h-8c-.79,0-1.43,.64-1.43,1.43s.64,1.43,1.43,1.43h11.46c.79,0,1.43-.64,1.43-1.43v-11.46c0-.79-.64-1.43-1.43-1.43Z"/>
    <path d="M4.89,2.86h8c.79,0,1.43-.64,1.43-1.43C14.32,.64,13.68,0,12.89,0H1.43C.64,0,0,.64,0,1.43V12.89c0,.79,.64,1.43,1.43,1.43,.79,0,1.43-.64,1.43-1.43h0V4.89l11.88,11.88c.57,.55,1.47,.54,2.03-.02,.54-.56,.54-1.44,0-2L4.89,2.86Z"/>
</svg>