<svg width="20" height="19" viewBox="0 0 20 19" fill="none" xmlns="http://www.w3.org/2000/svg">
<path d="M8.84747 0C3.97173 0 0 3.70271 0 8.24822C0 12.7937 3.97173 16.5036 8.84747 16.5036C10.93 16.5036 12.8454 15.8232 14.3591 14.6935L18.0445 18.1274C18.2304 18.2936 18.4788 18.3853 18.7364 18.3829C18.9941 18.3804 19.2404 18.284 19.4227 18.1143C19.605 17.9446 19.7087 17.7151 19.7117 17.475C19.7147 17.2348 19.6167 17.0031 19.4387 16.8295L15.7534 13.3938C16.9661 11.9804 17.6969 10.192 17.6969 8.24822C17.6969 3.70271 13.7232 0 8.84747 0ZM8.84747 1.83336C12.6604 1.83336 15.7284 4.69354 15.7284 8.24822C15.7284 11.8029 12.6604 14.6703 8.84747 14.6703C5.03452 14.6703 1.96653 11.8029 1.96653 8.24822C1.96653 4.69354 5.03452 1.83336 8.84747 1.83336Z" fill="black"/>
</svg>
