<svg xmlns="http://www.w3.org/2000/svg" viewBox="0 0 666.67 666.67">
	<path class="fill-main-500" d="m238.44,113.61C280.66,37.87,301.77,0,333.33,0s52.67,37.87,94.89,113.61l10.92,19.6c12,21.52,18,32.29,27.35,39.39,9.35,7.1,21,9.74,44.3,15.01l21.21,4.8c81.99,18.55,122.98,27.83,132.74,59.19,9.75,31.36-18.19,64.05-74.09,129.41l-14.46,16.91c-15.88,18.57-23.83,27.86-27.4,39.35-3.57,11.49-2.37,23.88.03,48.66l2.19,22.56c8.45,87.21,12.68,130.81-12.86,150.19-25.54,19.38-63.92,1.71-140.69-33.63l-19.86-9.15c-21.81-10.04-32.72-15.07-44.28-15.07s-22.47,5.02-44.28,15.07l-19.86,9.15c-76.77,35.34-115.15,53.02-140.68,33.63-25.53-19.38-21.31-62.99-12.86-150.19l2.19-22.56c2.4-24.78,3.6-37.17.03-48.66-3.57-11.49-11.51-20.78-27.4-39.35l-14.46-16.91C20.11,315.64-7.84,282.95,1.91,251.59c9.75-31.36,50.75-40.64,132.74-59.19l21.21-4.8c23.3-5.27,34.95-7.91,44.3-15.01,9.35-7.1,15.35-17.86,27.35-39.39l10.92-19.6Z" />
</svg>
