<svg width="18" height="18" viewBox="0 0 18 18" fill="none" xmlns="http://www.w3.org/2000/svg">
<path d="M15.18 2.5893C13.662 1.07269 11.6447 0.159242 9.50356 0.0189471C7.36237 -0.121348 5.24314 0.521066 3.54025 1.82664C1.83736 3.13221 0.666806 5.012 0.246424 7.11619C-0.173958 9.22038 0.184468 11.4056 1.255 13.2653L0 17.8453L4.691 16.6143C5.98801 17.3213 7.4418 17.6913 8.919 17.6903C11.2734 17.6912 13.533 16.7625 15.2063 15.1061C16.8795 13.4497 17.8311 11.1996 17.854 8.8453C17.8413 7.67796 17.5986 6.52458 17.1397 5.45112C16.6809 4.37766 16.015 3.40518 15.18 2.5893ZM8.923 16.2023C7.60505 16.2034 6.31111 15.8497 5.177 15.1783L4.91 15.0193L2.128 15.7453L2.869 13.0313L2.694 12.7523C2.10553 11.7834 1.74856 10.6918 1.65087 9.5624C1.55318 8.43302 1.7174 7.29632 2.13076 6.24077C2.54412 5.18522 3.19547 4.23928 4.03411 3.47657C4.87276 2.71386 5.87608 2.15494 6.96601 1.84331C8.05594 1.53169 9.20308 1.47576 10.3182 1.67988C11.4332 1.884 12.4862 2.34266 13.395 3.02017C14.3039 3.69768 15.0442 4.57577 15.5583 5.5861C16.0723 6.59644 16.3464 7.71177 16.359 8.8453C16.3382 10.8037 15.5456 12.6749 14.1533 14.0523C12.761 15.4298 10.8815 16.2024 8.923 16.2023ZM12.956 10.6953C12.737 10.5833 11.649 10.0493 11.446 9.9783C11.243 9.9073 11.095 9.8663 10.946 10.0903C10.797 10.3143 10.376 10.8073 10.246 10.9593C10.116 11.1113 9.987 11.1263 9.768 11.0153C8.49466 10.507 7.43307 9.57918 6.759 8.3853C6.532 7.9943 6.986 8.0223 7.409 7.1783C7.43783 7.11714 7.4511 7.04981 7.44761 6.98229C7.44412 6.91476 7.42398 6.84915 7.389 6.7913C7.333 6.6793 6.889 5.5913 6.708 5.1493C6.527 4.7073 6.345 4.7783 6.208 4.7703C6.071 4.7623 5.933 4.7623 5.786 4.7623C5.67408 4.76537 5.56398 4.79136 5.46251 4.83866C5.36103 4.88596 5.27032 4.95357 5.196 5.0373C4.9463 5.27445 4.74864 5.56093 4.61557 5.87855C4.48249 6.19616 4.41692 6.53798 4.423 6.8823C4.49587 7.71554 4.80845 8.50986 5.323 9.1693C6.27202 10.5902 7.5734 11.7407 9.1 12.5083C9.90245 12.9726 10.8328 13.1668 11.754 13.0623C12.0617 12.9999 12.3531 12.8741 12.6096 12.693C12.8661 12.5119 13.0822 12.2794 13.244 12.0103C13.3884 11.6796 13.4329 11.3139 13.372 10.9583C13.323 10.8583 13.175 10.8033 12.956 10.6953Z" fill="black"/>
</svg>
