<svg width="20" height="12" viewBox="0 0 20 12" fill="none" xmlns="http://www.w3.org/2000/svg">
<path d="M18.8897 1.87743C18.7823 1.51437 18.5707 1.18302 18.276 0.916524C17.9813 0.650027 17.6138 0.457734 17.2104 0.358886C15.7287 0 9.78668 0 9.78668 0C9.78668 0 3.84549 0 2.36382 0.358886C1.9604 0.457734 1.59295 0.650027 1.29825 0.916524C1.00354 1.18302 0.791916 1.51437 0.684546 1.87743C0.41072 3.24166 0.277843 4.62571 0.287611 6.01191C0.277843 7.39812 0.41072 8.78216 0.684546 10.1464C0.792646 10.5065 1.00496 10.8346 1.29992 11.0971C1.59487 11.3596 1.96194 11.5473 2.36382 11.6411C3.84549 12 9.78668 12 9.78668 12C9.78668 12 15.7279 12 17.2095 11.6411C17.6119 11.5472 17.9793 11.3593 18.2745 11.0963C18.5696 10.8333 18.7819 10.5048 18.8897 10.1441C19.1635 8.77986 19.2964 7.39581 19.2866 6.00961C19.2964 4.6234 19.1635 3.23935 18.8897 1.87512V1.87743ZM7.84392 8.55024V3.47819L12.8056 6.01422L7.84392 8.55024Z" fill="black"/>
</svg>
